<svg width="119" height="38" viewBox="0 0 119 38" fill="none" xmlns="http://www.w3.org/2000/svg">
<g clip-path="url(#clip0_2156_24825)">
<path d="M16.6575 7.39178V7.28767C16.6575 5.20548 15.9808 3.43562 14.7315 2.23836C13.274 0.884932 11.1397 0.156164 8.53699 0.156164H0V21.863H4.8411V14.7315H7.6L11.7644 21.811H17.3342L12.4932 13.7945C14.4712 12.9616 16.6575 11.1397 16.6575 7.39178ZM11.8164 7.44384C11.8164 9.42192 10.463 10.6192 8.22466 10.6192H4.8411V4.32055H8.12055C10.5151 4.32055 11.8164 5.4137 11.8164 7.44384ZM85.2658 0L77.0932 21.811H81.9863L83.6521 17.126H91.3041L92.9699 21.811H98.0192L89.8466 0H85.2658ZM89.8466 13.0137H85.1616L87.5041 6.40274L89.8466 13.0137ZM112.178 10.7233L118.685 0.10411H113.271L109.419 6.97534L105.671 0.10411H100.153L106.608 10.7753L99.8931 21.811H105.307L109.419 14.5233L113.479 21.811H118.997L112.178 10.7233ZM26.7041 17.5945V12.9616H35.3973V8.74521H26.7041V4.32055H36.5945V0.10411H21.863V21.811H30.9726L33.211 17.5945H26.7041ZM68.3479 0.10411L63.4548 7.13151L58.4575 0.10411H58.4055L53.4082 9.57808V21.811H58.1452V8.38082L63.2466 15.0438L63.2986 15.0959H63.5068L68.6603 8.32877V21.811H73.4493V0.10411H68.3479Z" fill="#DC1C2E"/>
<path d="M47.4219 0.104004L35.9698 21.8109H41.852L53.3041 0.104004H47.4219Z" fill="#003DA5"/>
<path d="M8.64109 36.0742H7.18356L6.40274 34.1482H2.60274L1.76986 36.0742H0.36438L3.85205 28.1099H5.15342L8.64109 36.0742ZM4.47671 29.7756L3.12328 32.951H5.83013L4.47671 29.7756Z" fill="#3F3F40"/>
<path d="M15.0959 36.074L13.1698 33.315H11.4V36.074H9.99451V28.1616H13.5342C14.0027 28.1616 14.4192 28.2137 14.7835 28.3178C15.1479 28.4219 15.4603 28.5781 15.7205 28.8383C15.9808 29.0466 16.189 29.3068 16.2931 29.6192C16.3972 29.9315 16.5014 30.2959 16.5014 30.6603C16.5014 30.9726 16.4493 31.2849 16.3452 31.5452C16.2411 31.8055 16.137 32.0137 15.9288 32.2219C15.7205 32.4301 15.5644 32.5863 15.3562 32.7424C15.1479 32.8986 14.8877 33.0027 14.5753 33.0548L16.7096 36.074H15.0959ZM14.6794 29.7233C14.3671 29.515 14.0027 29.4109 13.4822 29.4109H11.452V32.0657H13.4822C14.0027 32.0657 14.3671 31.9616 14.6794 31.7013C14.9918 31.4411 15.1479 31.1287 15.1479 30.7123C15.0959 30.2959 14.9397 29.9835 14.6794 29.7233Z" fill="#3F3F40"/>
<path d="M24.6219 35.4494C24.3616 35.6056 24.1013 35.7097 23.841 35.8658C23.5808 35.9699 23.2684 36.0741 22.9561 36.1261C22.6438 36.1782 22.3314 36.2302 21.9671 36.2302C21.3424 36.2302 20.8219 36.1261 20.3013 35.9179C19.7808 35.7097 19.3643 35.3973 18.9999 35.033C18.6356 34.6686 18.3753 34.2521 18.1671 33.7316C17.9588 33.211 17.8547 32.6905 17.8547 32.1179C17.8547 31.5453 17.9588 31.0247 18.1671 30.5562C18.3753 30.0357 18.6356 29.6193 18.9999 29.2549C19.3643 28.8905 19.7808 28.5782 20.3013 28.3699C20.8219 28.1617 21.3424 28.0576 21.9671 28.0576C22.3314 28.0576 22.6438 28.0576 22.9041 28.1097C23.1643 28.1617 23.4246 28.2138 23.6849 28.3179C23.9451 28.422 24.1534 28.5261 24.3616 28.6302C24.5698 28.7864 24.778 28.8905 24.9862 29.0987L24.1013 30.1398C23.9451 30.0357 23.789 29.8795 23.6328 29.7754C23.4767 29.6713 23.3205 29.5672 23.1123 29.5152C22.9561 29.4631 22.7479 29.411 22.5397 29.359C22.3314 29.3069 22.1232 29.3069 21.863 29.3069C21.4986 29.3069 21.1862 29.359 20.8739 29.5152C20.5616 29.6713 20.3013 29.8795 20.041 30.1398C19.8328 30.4001 19.6246 30.7124 19.5205 31.0247C19.3643 31.3891 19.3123 31.7535 19.3123 32.1179C19.3123 32.5343 19.3643 32.8987 19.5205 33.2631C19.6246 33.6275 19.8328 33.8878 20.0931 34.148C20.3534 34.4083 20.6136 34.6165 20.926 34.7206C21.2383 34.8768 21.6027 34.9288 22.0191 34.9288C22.3835 34.9288 22.7479 34.8768 23.0602 34.7727C23.3725 34.6686 23.6849 34.5124 23.8931 34.3562V32.8467H21.863V31.6494H25.2465V34.9809C25.0904 35.1371 24.8821 35.2932 24.6219 35.4494Z" fill="#3F3F40"/>
<path d="M33.0027 29.4109H28.526V31.4411H32.4821V32.6904H28.526V34.8246H33.0547V36.074H27.1205V28.1616H33.0027V29.4109Z" fill="#3F3F40"/>
<path d="M40.2384 28.1616H41.6439V36.074H40.4987L36.1261 30.452V36.074H34.7206V28.1616H36.022L40.2904 33.6274V28.1616H40.2384Z" fill="#3F3F40"/>
<path d="M47.0054 36.0742H45.5999V29.4112H43.1013V28.1099H49.5561V29.4112H47.0575V36.0742H47.0054Z" fill="#3F3F40"/>
<path d="M52.4713 28.1616V36.074H51.0658V28.1616H52.4713Z" fill="#3F3F40"/>
<path d="M60.1233 28.1616H61.5288V36.074H60.3835L56.0109 30.452V36.074H54.6055V28.1616H55.9068L60.1753 33.6274V28.1616H60.1233Z" fill="#3F3F40"/>
<path d="M71.1589 36.0741H69.7013L68.9205 34.148H65.1726L64.3397 36.0741H62.9342L66.4219 28.0576H67.7232L71.1589 36.0741ZM66.9945 29.7754L65.6411 32.9508H68.4L66.9945 29.7754Z" fill="#3F3F40"/>
</g>
<defs>
<clipPath id="clip0_2156_24825">
<rect width="118.997" height="38" fill="white"/>
</clipPath>
</defs>
</svg>
