<svg width="128" height="24" viewBox="0 0 128 24" fill="none" xmlns="http://www.w3.org/2000/svg">
<path d="M20.8053 8.45585V8.35083C20.8053 6.2506 20.1225 4.46539 18.8621 3.25776C17.3917 1.8926 15.2385 1.15752 12.6127 1.15752H4V23.0525H8.88403V15.8592H11.6674L15.8687 23H21.488L16.6039 14.9141C18.5996 14.074 20.8053 12.2363 20.8053 8.45585ZM15.9212 8.50835C15.9212 10.5036 14.5558 11.7112 12.2976 11.7112H8.88403V5.358H12.1926C14.6083 5.358 15.9212 6.46062 15.9212 8.50835ZM90.0219 1L81.7768 23H86.7133L88.3939 18.2745H96.1138L97.7943 23H102.888L94.6433 1H90.0219ZM94.6433 14.1265H89.9168L92.2801 7.45823L94.6433 14.1265ZM117.173 11.8162L123.737 1.10501H118.276L114.389 8.0358L110.608 1.10501H105.042L111.554 11.8687L104.779 23H110.241L114.389 15.6492L118.486 23H124.053L117.173 11.8162ZM30.9409 18.747V14.074H39.7112V9.821H30.9409V5.358H40.919V1.10501H26.0569V23H35.2473L37.5055 18.747H30.9409ZM72.954 1.10501L68.0175 8.19332L62.9759 1.10501H62.9234L57.8818 10.6611V23H62.6608V9.45346L67.8074 16.1742L67.8599 16.2267H68.07L73.2691 9.40095V23H78.1007V1.10501H72.954Z" fill="#DC1C2E"/>
<path d="M51.8424 1.10498L40.2888 23H46.2232L57.7768 1.10498H51.8424Z" fill="#003DA5"/>
</svg>
